#!OML:ASF G:\JayActor3\Patient Classification 1\Patient 1\Session 6\male.ASF
:FULLY-SPECIFIED
:DEGREES
1452
root -30.9421 16.564 4.15931 -185.57 -41.2502 187.649
lowerback -9.29834 4.71722 7.48008
upperback -2.83214 5.54532 -3.01618
thorax 3.2468 2.74932 -6.67386
lowerneck 5.08797 -2.49581 -6.57674
upperneck 0.815252 -4.88662 24.9749
head 0.114608 -3.15998 8.91803
rclavicle 3.04141e-014 -2.38542e-014
rhumerus -31.4227 17.6708 -104.761
rradius 39.097
rwrist 1.51565
rhand -23.0449 -11.0517
rfingers 7.12502
rthumb 3.39978 -41.0043
lclavicle 3.04141e-014 -2.38542e-014
lhumerus -59.5321 25.2373 54.7203
lradius 25.2457
lwrist 22.7804
lhand -18.1457 11.5363
lfingers 7.12502
lthumb 8.12975 41.3599
rfemur 15.9837 8.35875 36.1331
rtibia 21.0556
rfoot -8.09979 -1.8055
rtoes -11.5572
lfemur -20.0815 1.17127 -10.4721
ltibia 27.3379
lfoot -14.8616 -16.5509
ltoes -12.1314
1453
root -31.0235 16.566 4.09943 -185.503 -40.8699 187.642
lowerback -9.40272 4.6971 7.51666
upperback -2.86293 5.50465 -3.029
thorax 3.26965 2.72737 -6.70878
lowerneck 5.16567 -2.57485 -6.75334
upperneck 0.814021 -5.02998 25.1417
head 0.132243 -3.24455 9.0094
rclavicle -1.05952e-013 -2.8625e-014
rhumerus -31.8294 17.7725 -104.98
rradius 39.253
rwrist 1.37437
rhand -22.9057 -11.0389
rfingers 7.12502
rthumb 3.5342 -40.9893
lclavicle -1.05952e-013 -2.8625e-014
lhumerus -59.3271 25.1005 54.757
lradius 25.3983
lwrist 22.7503
lhand -18.1307 11.6733
lfingers 7.12502
lthumb 8.14422 41.4963
rfemur 16.0157 8.58285 36.1516
rtibia 21.5321
rfoot -7.68852 -2.12146
rtoes -11.6076
lfemur -19.7508 1.64305 -10.4726
ltibia 27.4699
lfoot -14.626 -16.7559
ltoes -11.6585
1454
root -31.1038 16.5669 4.03989 -185.435 -40.4646 187.623
lowerback -9.47045 4.68795 7.54463
upperback -2.8898 5.48268 -3.04322
thorax 3.27891 2.71465 -6.73981
lowerneck 5.20435 -2.66412 -6.8782
upperneck 0.813486 -5.18186 25.26
head 0.156786 -3.32925 9.07315
rclavicle -1.33186e-014 9.54166e-015
rhumerus -32.2241 17.8564 -105.172
rradius 39.4148
rwrist 1.19585
rhand -22.7507 -11.012
rfingers 7.12502
rthumb 3.68381 -40.9599
lclavicle -1.33186e-014 9.54166e-015
lhumerus -59.0656 24.9247 54.8548
lradius 25.6144
lwrist 22.7578
lhand -18.0654 11.7964
lfingers 7.12502
lthumb 8.20722 41.617
rfemur 16.0292 8.8173 36.1637
rtibia 22.0553
rfoot -7.26973 -2.4428
rtoes -11.5773
lfemur -19.4032 2.1246 -10.4736
ltibia 27.5895
lfoot -14.3536 -16.9507
ltoes -11.1533
1455
root -31.1832 16.5678 3.98076 -185.354 -40.0438 187.566
lowerback -9.49597 4.67402 7.54256
upperback -2.91399 5.46067 -3.0561
thorax 3.26484 2.70122 -6.75512
lowerneck 5.18167 -2.76654 -6.94632
upperneck 0.844941 -5.34904 25.2968
head 0.201091 -3.41273 9.09539
rclavicle 1.25234e-014 2.22639e-014
rhumerus -32.6166 17.9472 -105.344
rradius 39.5806
rwrist 0.999812
rhand -22.5557 -11.0176
rfingers 7.12502
rthumb 3.8722 -40.9622
lclavicle 1.25234e-014 2.22639e-014
lhumerus -58.7798 24.7335 54.9985
lradius 25.893
lwrist 22.8194
lhand -17.9841 11.8769
lfingers 7.12502
lthumb 8.2857 41.6944
rfemur 16.0137 9.02083 36.1295
rtibia 22.64
rfoot -6.83003 -2.7655
rtoes -11.5358
lfemur -19.0302 2.60124 -10.5002
ltibia 27.6894
lfoot -14.0427 -17.1628
ltoes -10.4997
1456
root -31.2614 16.5678 3.92237 -185.249 -39.6119 187.463
lowerback -9.48297 4.65362 7.50418
upperback -2.93675 5.43681 -3.07446
thorax 3.22798 2.68608 -6.75847
lowerneck 5.12369 -2.857 -7.00085
upperneck 0.886499 -5.4995 25.3239
head 0.251265 -3.48473 9.11051
rclavicle 1.2265e-013 1.59028e-014
rhumerus -33.002 18.0331 -105.498
rradius 39.7451
rwrist 0.801962
rhand -22.3458 -11.0649
rfingers 7.12502
rthumb 4.07482 -41.0057
lclavicle 1.2265e-013 1.59028e-014
lhumerus -58.466 24.5153 55.1928
lradius 26.2378
lwrist 22.9609
lhand -17.915 11.9146
lfingers 7.12502
lthumb 8.3524 41.7294
rfemur 15.9662 9.24703 36.0695
rtibia 23.2958
rfoot -6.39149 -3.14334
rtoes -11.4726
lfemur -18.6457 3.06297 -10.5617
ltibia 27.7753
lfoot -13.7102 -17.3918
ltoes -9.66752
